<?xml version="1.0" encoding="UTF-8"?>
<svg id="Layer_2" data-name="Layer 2" xmlns="http://www.w3.org/2000/svg" viewBox="0 0 65.32 27.42">
  <defs>
    <style>
      .cls-1 {
        fill: #fff;
      }

      .cls-2 {
        fill: #6698c3;
      }
    </style>
  </defs>
  <g>
    <path class="cls-1" d="M6.97,9.4l-2.4-1.1-1,.9-1.2-.5,4.5-4.1,1.2.5v6.1l-1.2-.6.1-1.2ZM7.08,8.3v-2.3l-1.7,1.6,1.7.7Z"/>
    <path class="cls-1" d="M10.46,5.53l1.2.3-1.4,5.8-1.2-.3,1.4-5.8Z"/>
    <path class="cls-1" d="M17.42,7.85c.5,0,1,.2,1.3.5.3.3.5.8.5,1.4v2.5h-1.2v-2.3c0-.3-.1-.6-.2-.8-.1-.2-.3-.2-.6-.2s-.5.1-.7.3c-.3.1-.4.4-.4.8v2.2h-1.2v-2.3c0-.7-.2-1-.8-1-.3,0-.5.1-.7.3-.2.2-.3.4-.3.7v2.2h-1.2l.1-4.3h1.2l-.1.5c.2-.2.4-.3.6-.4.2-.1.5-.1.8-.1s.6.1.8.2c.2.1.4.3.6.5.2-.2.4-.4.7-.5.2-.2.5-.2.8-.2Z"/>
    <path class="cls-1" d="M21.3,7.1c.6-.2,1.2-.2,1.6.1.4.2.7.6.9,1.2l.6,2.4-1.1.3-.1-.5c-.1.4-.5.8-1.1.9-.3.1-.6.1-.9.1-.3-.1-.5-.2-.7-.3-.2-.1-.3-.4-.4-.6-.1-.4,0-.7.2-1,.2-.3.6-.5,1.2-.7l1-.3c-.1-.3-.2-.4-.4-.5-.2-.1-.5-.1-.8,0-.2.1-.4.1-.6.3-.2.1-.4.3-.5.4l-.6-.8c.2-.2.4-.4.7-.6.3-.2.6-.3,1-.4ZM22.1,10.6c.2-.1.4-.1.5-.3.1-.1.2-.3.2-.5l-.1-.4-.9.2c-.5.1-.7.4-.6.7,0,.2.1.3.3.3h.6Z"/>
    <path class="cls-1" d="M27.13,9.61c-.3.2-.7.3-1,.4-.3.1-.6.1-.9,0v-1h.8c.3-.1.5-.1.8-.2.5-.2.6-.4.5-.7-.1-.1-.2-.2-.3-.1-.1,0-.4.1-.6.2-.3.1-.6.2-.9.2s-.5,0-.7-.1c-.2-.1-.4-.3-.6-.6-.1-.2-.1-.5-.1-.7,0-.3.2-.5.4-.8.2-.2.5-.5.9-.7.3-.1.6-.2.9-.3.3-.1.6-.1.8-.1v1c-.4,0-.8.1-1.2.3-.2.1-.4.2-.5.4-.1.1-.1.2,0,.3.1.1.2.2.3.1.2,0,.4-.1.7-.1.4-.1.6-.2.9-.2.2,0,.4,0,.7.1.2.1.4.3.5.5.1.2.2.5.1.8-.1.2-.2.5-.4.8-.4.1-.7.4-1.1.5Z"/>
    <path class="cls-1" d="M26.7,19.35c.5-.4,1-.6,1.5-.6s.9.3,1.3.8l1.5,1.9-.9.7-.3-.4c.1.4-.1.9-.6,1.3-.2.2-.5.3-.8.4-.2.1-.5.1-.7,0-.2-.1-.4-.2-.6-.4-.2-.3-.3-.6-.2-1s.4-.7.9-1.1l.8-.6c-.2-.2-.4-.3-.6-.3s-.5.1-.7.3c-.3,0-.4.2-.6.4-.1.2-.2.4-.2.6l-.9-.4c.1-.3.2-.6.4-.8.2-.3.4-.6.7-.8ZM28.9,22.25c.2-.1.3-.3.4-.5.1-.2.1-.4,0-.6l-.3-.3-.7.5c-.4.3-.5.6-.3.9.1.1.2.2.4.2s.3-.1.5-.2Z"/>
    <path class="cls-1" d="M28.86,15.91l1.1-.6,3,5.2-1.1.6-3-5.2Z"/>
    <path class="cls-1" d="M39.39,12.34l-1,6-1.2.3-3.7-4.8,1.4-.3,2.6,3.4.7-4.3,1.2-.3Z"/>
    <path class="cls-1" d="M40.71,13.68l1.2-.1.3,4.3-1.2.1-.3-4.3ZM41.31,12.97c-.2,0-.4,0-.6-.2-.2-.1-.2-.3-.2-.5s0-.4.2-.5c.1-.1.3-.2.6-.2.2,0,.4,0,.6.2.1.1.2.3.2.5s-.1.4-.2.5c-.2.1-.4.2-.6.2Z"/>
    <path class="cls-1" d="M47.5,15.96v.4l-3.2-.2c0,.3.1.5.4.6.2.2.5.3.8.3h.6c.2-.1.3-.2.5-.3l.6.8c-.4.4-1,.6-1.8.5-.5,0-.9-.2-1.3-.4-.4-.2-.6-.5-.8-.9-.2-.4-.2-.7-.2-1.2,0-.4.1-.8.4-1.1.2-.3.5-.6.9-.7.2-.2.6-.3,1-.2.4,0,.8.2,1.1.3.3.2.6.5.7.8.3.4.3.8.3,1.3ZM45.4,14.46c-.3,0-.5,0-.7.2-.2.1-.4.4-.4.6l2.1.2c0-.3-.1-.5-.3-.7s-.4-.2-.7-.3Z"/>
    <path class="cls-1" d="M51.59,14.68c.5.2.9.5,1.1.9.2.4.2.9.1,1.5l-.7,2.3-1.2-.4.7-2.2c.1-.3.1-.6,0-.8-.1-.2-.3-.4-.5-.4-.5,0-.8,0-1,.2-.2.1-.4.4-.5.8l-.6,2-1.2-.4,1.3-4.1,1.1.3-.1.5c.2-.1.4-.2.7-.2.2-.1.5,0,.8,0Z"/>
    <path class="cls-1" d="M55.19,20.97h-.5c-.2,0-.3-.1-.5-.2-.5-.2-.8-.5-.9-.9-.1-.4-.1-.8.2-1.2l.8-1.7-.6-.3.5-.8.6.3.5-.9,1.1.6-.5.9.9.5-.5.9-.9-.5-.8,1.5c-.1.2-.1.3-.1.4s.1.2.3.3c.2.1.4.1.5.1l-.1,1Z"/>
    <path class="cls-1" d="M57.03,22.6c-.4-.3-.6-.6-.8-1-.2-.4-.2-.8-.2-1.1,0-.4.2-.8.5-1.1s.6-.6.9-.7c.4-.1.8-.2,1.2-.1s.8.2,1.1.5c.4.3.6.6.8,1,.2.4.2.7.2,1.1-.1.4-.2.8-.5,1.1-.3.3-.6.6-.9.7-.3.1-.7.2-1.1.1-.5,0-.8-.2-1.2-.5ZM57.63,21.8c.2.2.5.3.8.2.3,0,.5-.2.8-.5.2-.3.3-.6.3-.9s-.1-.6-.4-.8c-.2-.2-.5-.3-.8-.2-.3,0-.6.2-.8.5-.2.3-.3.6-.3.9,0,.4.2.6.4.8Z"/>
    <path class="cls-1" d="M16.6,16.68C7.5,16.68,0,11.88,0,11.48c.2.1,16.1,8.8,28.5,1,10.9-6.8,20.8-2.8,26.2-.6.9.4,1.7.7,2.4.9,3,1,5.9-.1,6.9-1.6.6-.9.5-1.9-.4-2.9-1.3-1.4-2.6-1.5-3.4-1.3-1.2.3-2.1,1.1-2.2,1.6-.1.3,0,.6.2.9.3.4.9.7,1.2.7.5,0,.9-.2,1-.5.1-.2-.1-.5-.5-.8l.6-.8c1,.8,1,1.5.8,1.9-.2.7-1,1.2-2,1.2-.7,0-1.5-.5-2-1.1-.4-.5-.5-1.2-.3-1.7.3-.9,1.4-2,2.9-2.3,1.6-.4,3.2.2,4.4,1.6,1.2,1.3,1.3,2.8.5,4.1-1.2,1.9-4.6,3.2-8.1,2-.7-.2-1.5-.6-2.5-.9-5.6-2.3-14.9-6-25.3.5-3.9,2.4-8.2,3.3-12.3,3.3Z"/>
    <path class="cls-1" d="M5.3,16.98c.6.5,8.9,5,17.2,1.7l.4.9c-2.5,1-4,1-6.4,1-5.8,0-10.5-2.6-10.8-3"/>
    <path class="cls-1" d="M32.5,7.48l.1-.2c1-1.2,10.7-4.9,17.1-.7l-.5.9c-7-4.3-16.6-.1-16.7,0Z"/>
  </g>
  <g>
    <path class="cls-1" d="M6.97,9.4l-2.4-1.1-1,.9-1.2-.5,4.5-4.1,1.2.5v6.1l-1.2-.6.1-1.2ZM7.08,8.3v-2.3l-1.7,1.6,1.7.7Z"/>
    <path class="cls-1" d="M10.46,5.53l1.2.3-1.4,5.8-1.2-.3,1.4-5.8Z"/>
    <path class="cls-1" d="M17.42,7.85c.5,0,1,.2,1.3.5.3.3.5.8.5,1.4v2.5h-1.2v-2.3c0-.3-.1-.6-.2-.8-.1-.2-.3-.2-.6-.2s-.5.1-.7.3c-.3.1-.4.4-.4.8v2.2h-1.2v-2.3c0-.7-.2-1-.8-1-.3,0-.5.1-.7.3-.2.2-.3.4-.3.7v2.2h-1.2l.1-4.3h1.2l-.1.5c.2-.2.4-.3.6-.4.2-.1.5-.1.8-.1s.6.1.8.2c.2.1.4.3.6.5.2-.2.4-.4.7-.5.2-.2.5-.2.8-.2Z"/>
    <path class="cls-1" d="M21.3,7.1c.6-.2,1.2-.2,1.6.1.4.2.7.6.9,1.2l.6,2.4-1.1.3-.1-.5c-.1.4-.5.8-1.1.9-.3.1-.6.1-.9.1-.3-.1-.5-.2-.7-.3-.2-.1-.3-.4-.4-.6-.1-.4,0-.7.2-1,.2-.3.6-.5,1.2-.7l1-.3c-.1-.3-.2-.4-.4-.5-.2-.1-.5-.1-.8,0-.2.1-.4.1-.6.3-.2.1-.4.3-.5.4l-.6-.8c.2-.2.4-.4.7-.6.3-.2.6-.3,1-.4ZM22.1,10.6c.2-.1.4-.1.5-.3.1-.1.2-.3.2-.5l-.1-.4-.9.2c-.5.1-.7.4-.6.7,0,.2.1.3.3.3h.6Z"/>
    <path class="cls-1" d="M27.13,9.61c-.3.2-.7.3-1,.4-.3.1-.6.1-.9,0v-1h.8c.3-.1.5-.1.8-.2.5-.2.6-.4.5-.7-.1-.1-.2-.2-.3-.1-.1,0-.4.1-.6.2-.3.1-.6.2-.9.2s-.5,0-.7-.1c-.2-.1-.4-.3-.6-.6-.1-.2-.1-.5-.1-.7,0-.3.2-.5.4-.8.2-.2.5-.5.9-.7.3-.1.6-.2.9-.3.3-.1.6-.1.8-.1v1c-.4,0-.8.1-1.2.3-.2.1-.4.2-.5.4-.1.1-.1.2,0,.3.1.1.2.2.3.1.2,0,.4-.1.7-.1.4-.1.6-.2.9-.2.2,0,.4,0,.7.1.2.1.4.3.5.5.1.2.2.5.1.8-.1.2-.2.5-.4.8-.4.1-.7.4-1.1.5Z"/>
    <path class="cls-1" d="M26.7,19.35c.5-.4,1-.6,1.5-.6s.9.3,1.3.8l1.5,1.9-.9.7-.3-.4c.1.4-.1.9-.6,1.3-.2.2-.5.3-.8.4-.2.1-.5.1-.7,0-.2-.1-.4-.2-.6-.4-.2-.3-.3-.6-.2-1s.4-.7.9-1.1l.8-.6c-.2-.2-.4-.3-.6-.3s-.5.1-.7.3c-.3,0-.4.2-.6.4-.1.2-.2.4-.2.6l-.9-.4c.1-.3.2-.6.4-.8.2-.3.4-.6.7-.8ZM28.9,22.25c.2-.1.3-.3.4-.5.1-.2.1-.4,0-.6l-.3-.3-.7.5c-.4.3-.5.6-.3.9.1.1.2.2.4.2s.3-.1.5-.2Z"/>
    <path class="cls-1" d="M28.86,15.91l1.1-.6,3,5.2-1.1.6-3-5.2Z"/>
    <path class="cls-1" d="M39.39,12.34l-1,6-1.2.3-3.7-4.8,1.4-.3,2.6,3.4.7-4.3,1.2-.3Z"/>
    <path class="cls-1" d="M40.71,13.68l1.2-.1.3,4.3-1.2.1-.3-4.3ZM41.31,12.97c-.2,0-.4,0-.6-.2-.2-.1-.2-.3-.2-.5s0-.4.2-.5c.1-.1.3-.2.6-.2.2,0,.4,0,.6.2.1.1.2.3.2.5s-.1.4-.2.5c-.2.1-.4.2-.6.2Z"/>
    <path class="cls-1" d="M47.5,15.96v.4l-3.2-.2c0,.3.1.5.4.6.2.2.5.3.8.3h.6c.2-.1.3-.2.5-.3l.6.8c-.4.4-1,.6-1.8.5-.5,0-.9-.2-1.3-.4-.4-.2-.6-.5-.8-.9-.2-.4-.2-.7-.2-1.2,0-.4.1-.8.4-1.1.2-.3.5-.6.9-.7.2-.2.6-.3,1-.2.4,0,.8.2,1.1.3.3.2.6.5.7.8.3.4.3.8.3,1.3ZM45.4,14.46c-.3,0-.5,0-.7.2-.2.1-.4.4-.4.6l2.1.2c0-.3-.1-.5-.3-.7s-.4-.2-.7-.3Z"/>
    <path class="cls-1" d="M51.59,14.68c.5.2.9.5,1.1.9.2.4.2.9.1,1.5l-.7,2.3-1.2-.4.7-2.2c.1-.3.1-.6,0-.8-.1-.2-.3-.4-.5-.4-.5,0-.8,0-1,.2-.2.1-.4.4-.5.8l-.6,2-1.2-.4,1.3-4.1,1.1.3-.1.5c.2-.1.4-.2.7-.2.2-.1.5,0,.8,0Z"/>
    <path class="cls-1" d="M55.19,20.97h-.5c-.2,0-.3-.1-.5-.2-.5-.2-.8-.5-.9-.9-.1-.4-.1-.8.2-1.2l.8-1.7-.6-.3.5-.8.6.3.5-.9,1.1.6-.5.9.9.5-.5.9-.9-.5-.8,1.5c-.1.2-.1.3-.1.4s.1.2.3.3c.2.1.4.1.5.1l-.1,1Z"/>
    <path class="cls-1" d="M57.03,22.6c-.4-.3-.6-.6-.8-1-.2-.4-.2-.8-.2-1.1,0-.4.2-.8.5-1.1s.6-.6.9-.7c.4-.1.8-.2,1.2-.1s.8.2,1.1.5c.4.3.6.6.8,1,.2.4.2.7.2,1.1-.1.4-.2.8-.5,1.1-.3.3-.6.6-.9.7-.3.1-.7.2-1.1.1-.5,0-.8-.2-1.2-.5ZM57.63,21.8c.2.2.5.3.8.2.3,0,.5-.2.8-.5.2-.3.3-.6.3-.9s-.1-.6-.4-.8c-.2-.2-.5-.3-.8-.2-.3,0-.6.2-.8.5-.2.3-.3.6-.3.9,0,.4.2.6.4.8Z"/>
    <path class="cls-2" d="M16.6,16.68C7.5,16.68,0,11.88,0,11.48c.2.1,16.1,8.8,28.5,1,10.9-6.8,20.8-2.8,26.2-.6.9.4,1.7.7,2.4.9,3,1,5.9-.1,6.9-1.6.6-.9.5-1.9-.4-2.9-1.3-1.4-2.6-1.5-3.4-1.3-1.2.3-2.1,1.1-2.2,1.6-.1.3,0,.6.2.9.3.4.9.7,1.2.7.5,0,.9-.2,1-.5.1-.2-.1-.5-.5-.8l.6-.8c1,.8,1,1.5.8,1.9-.2.7-1,1.2-2,1.2-.7,0-1.5-.5-2-1.1-.4-.5-.5-1.2-.3-1.7.3-.9,1.4-2,2.9-2.3,1.6-.4,3.2.2,4.4,1.6,1.2,1.3,1.3,2.8.5,4.1-1.2,1.9-4.6,3.2-8.1,2-.7-.2-1.5-.6-2.5-.9-5.6-2.3-14.9-6-25.3.5-3.9,2.4-8.2,3.3-12.3,3.3Z"/>
    <path class="cls-1" d="M5.3,16.98c.6.5,8.9,5,17.2,1.7l.4.9c-2.5,1-4,1-6.4,1-5.8,0-10.5-2.6-10.8-3"/>
    <path class="cls-1" d="M32.5,7.48l.1-.2c1-1.2,10.7-4.9,17.1-.7l-.5.9c-7-4.3-16.6-.1-16.7,0Z"/>
  </g>
</svg>